<?xml version="1.0" encoding="UTF-8" standalone="no"?>
<!-- Created with Inkscape (http://www.inkscape.org/) -->

<svg
   width="85.129868mm"
   height="21.15325mm"
   viewBox="0 0 89.386361 22.210911"
   version="1.1"
   id="svg5"
   inkscape:version="1.1.1 (3bf5ae0d25, 2021-09-20)"
   sodipodi:docname="pigeon_logo.svg"
   xmlns:inkscape="http://www.inkscape.org/namespaces/inkscape"
   xmlns:sodipodi="http://sodipodi.sourceforge.net/DTD/sodipodi-0.dtd"
   xmlns="http://www.w3.org/2000/svg"
   xmlns:svg="http://www.w3.org/2000/svg">
  <sodipodi:namedview
     id="namedview7"
     pagecolor="#ffffff"
     bordercolor="#666666"
     borderopacity="1.0"
     inkscape:pageshadow="2"
     inkscape:pageopacity="0.0"
     inkscape:pagecheckerboard="0"
     inkscape:document-units="mm"
     showgrid="false"
     inkscape:zoom="1.4142136"
     inkscape:cx="229.8097"
     inkscape:cy="63.286055"
     inkscape:window-width="1397"
     inkscape:window-height="899"
     inkscape:window-x="208"
     inkscape:window-y="40"
     inkscape:window-maximized="0"
     inkscape:current-layer="g39807"
     fit-margin-top="0"
     fit-margin-left="0"
     fit-margin-right="0"
     fit-margin-bottom="0"
     width="136.551mm"
     scale-x="1.05" />
  <defs
     id="defs2">
    <clipPath
       id="clip0">
      <rect
         x="479"
         y="163"
         width="650"
         height="125"
         id="rect28" />
    </clipPath>
    <clipPath
       id="clip1">
      <rect
         x="479"
         y="163"
         width="113"
         height="99"
         id="rect31" />
    </clipPath>
    <clipPath
       id="clip2">
      <rect
         x="479"
         y="163"
         width="113"
         height="99"
         id="rect34" />
    </clipPath>
    <clipPath
       id="clip3">
      <rect
         x="479"
         y="163"
         width="113"
         height="99"
         id="rect37" />
    </clipPath>
    <clipPath
       id="clip1-5">
      <rect
         x="479"
         y="163"
         width="113"
         height="99"
         id="rect31-2" />
    </clipPath>
    <clipPath
       id="clip2-4">
      <rect
         x="479"
         y="163"
         width="113"
         height="99"
         id="rect34-8" />
    </clipPath>
    <clipPath
       id="clip3-4">
      <rect
         x="479"
         y="163"
         width="113"
         height="99"
         id="rect37-1" />
    </clipPath>
  </defs>
  <g
     inkscape:label="Layer 1"
     inkscape:groupmode="layer"
     id="layer1"
     transform="translate(-4.0891868,-4.9332546)">
    <g
       clip-path="url(#clip0)"
       transform="matrix(0.26458333,0,0,0.26458333,-126.97723,-43.156035)"
       id="g62"
       inkscape:export-filename="C:\Users\lh57n\Downloads\g62.png"
       inkscape:export-xdpi="96"
       inkscape:export-ydpi="96">
      <g
         id="g34964">
        <g
           id="g39807">
          <g
             id="g76311"
             transform="translate(2.2273862,0.7424621)">
            <g
               clip-path="url(#clip1)"
               id="g50"
               transform="matrix(0.8011016,0,0,0.8011016,110.90941,51.087471)">
              <g
                 clip-path="url(#clip2)"
                 id="g48"
                 transform="matrix(1.004624,0,0,1.004624,-2.2191057,-0.75421321)">
                <g
                   clip-path="url(#clip3)"
                   id="g46"
                   transform="matrix(0.99999998,0,0,0.99999724,-1.3264852e-4,5.7453792e-4)">
                  <path
                     d="M 80.0814,-8.58374 C 75.5822,-9.0298 70.8883,-10.5949 66.762,-13.0249 c -1.1285,-0.6646 -1.2359,-0.7306 -1.2957,-0.796 -0.0284,-0.0313 -0.2039,-0.1631 -0.3898,-0.293 -0.186,-0.1298 -0.3165,-0.2712 -0.29,-0.3139 0.0515,-0.0834 0.8037,-0.3051 1.9755,-0.5821 0.3991,-0.0943 1.0521,-0.2573 1.4512,-0.3622 0.399,-0.1049 1.0521,-0.2681 1.4511,-0.3628 0.3991,-0.0946 1.0521,-0.2588 1.4512,-0.3648 0.399,-0.106 1.1453,-0.2895 1.6584,-0.4077 0.5131,-0.1182 1.1894,-0.2816 1.5029,-0.3632 0.3136,-0.0817 0.99,-0.247 1.503,-0.3673 0.5131,-0.1203 1.1428,-0.2803 1.3993,-0.3555 0.2566,-0.0751 0.6633,-0.1903 0.9038,-0.2559 0.4931,-0.1344 0.5346,-0.2264 0.7506,-1.6675 0.1771,-1.1812 0.4005,-2.6073 0.6333,-4.0425 0.1156,-0.7126 0.2745,-1.6921 0.3531,-2.1767 0.0786,-0.4846 0.193,-1.1896 0.2541,-1.5667 0.2144,-1.323 0.6715,-0.7403 -5.0607,-6.4474 l -5.1719,-5.1488 -0.5031,0.0593 c -0.2768,0.0326 -1.0163,0.1454 -1.6434,0.2507 -0.6271,0.1053 -1.63,0.2695 -2.2286,0.365 -0.5986,0.0954 -1.6014,0.2601 -2.2284,0.3658 -0.6272,0.1059 -1.6067,0.2709 -2.1767,0.3668 -0.5702,0.0957 -1.1719,0.2046 -1.3373,0.2418 -0.3435,0.0773 -0.3382,0.0638 -0.9901,2.5476 -0.2246,0.8551 -0.5311,2.0212 -0.6812,2.5912 -0.4086,1.5517 -0.903,3.47 -1.5494,6.0119 -0.7214,2.8372 -0.6414,2.6173 -0.863,2.3744 -0.6288,-0.6886 -2.2559,-3.6204 -3.0086,-5.4208 -0.7615,-1.8212 -0.9111,-2.2367 -1.2923,-3.5874 -1.167,-4.136 -1.5629,-7.9756 -1.2202,-11.8368 0.1288,-1.4518 0.5184,-4.0803 0.6229,-4.2024 0.0361,-0.0421 0.3404,0.2844 0.6761,0.7256 0.3356,0.4412 0.8101,1.0588 1.0544,1.3724 0.2443,0.3135 0.8213,1.0831 1.2823,1.7102 0.4611,0.6271 0.9983,1.3501 1.194,1.6066 0.1956,0.2566 0.9279,1.2153 1.6274,2.1305 0.6994,0.9153 1.365,1.7947 1.479,1.9542 0.114,0.1596 0.387,0.5195 0.6066,0.7999 l 0.3992,0.5097 0.5336,-0.061 c 0.2935,-0.0335 0.9068,-0.1248 1.3629,-0.2028 1.1008,-0.1883 3.0606,-0.5119 4.4052,-0.7273 0.5986,-0.0959 1.5548,-0.2597 2.1249,-0.3641 0.5701,-0.1044 1.3013,-0.2192 1.6249,-0.2552 0.6824,-0.0758 0.6099,0.0075 1.535,-1.7626 0.3576,-0.6842 0.8134,-1.547 1.013,-1.9176 0.1997,-0.3706 0.5952,-1.1168 0.8789,-1.6584 0.2837,-0.5416 0.6911,-1.3113 0.9054,-1.7104 0.2143,-0.399 0.6704,-1.2619 1.0137,-1.9175 0.3433,-0.6556 0.8709,-1.6585 1.1724,-2.2285 0.754,-1.4256 0.9263,-1.7841 0.9263,-1.9267 0,-0.1106 -1.0225,-2.1235 -1.6802,-3.3078 -0.1426,-0.2566 -0.459,-0.8396 -0.7033,-1.2957 -0.2442,-0.456 -0.4777,-0.8758 -0.5188,-0.9329 -0.0411,-0.057 -0.2778,-0.5001 -0.5261,-0.9847 -0.2484,-0.4846 -0.6747,-1.2695 -0.9474,-1.7443 -0.2727,-0.4749 -0.4959,-0.8865 -0.4959,-0.9148 0,-0.0283 -0.1914,-0.3792 -0.4253,-0.7798 l -0.4254,-0.7283 -0.5334,0.0578 c -0.2934,0.0318 -1.5129,0.1088 -2.7101,0.1712 -1.1972,0.0623 -3.2262,0.1796 -4.5089,0.2606 -1.2828,0.0809 -3.0786,0.1743 -3.9907,0.2076 -0.9121,0.0332 -1.7653,0.0827 -1.8959,0.1098 -0.229,0.0477 -0.2321,0.0392 -0.0865,-0.2387 0.083,-0.1584 0.238,-0.3813 0.3444,-0.4954 0.1064,-0.114 0.5111,-0.6037 0.8994,-1.0883 2.0793,-2.5955 5.6446,-5.5211 8.7769,-7.2024 3.7844,-2.0314 6.5798,-3.0268 10.9263,-3.891 0.853,-0.1697 1.5645,-0.3084 1.5813,-0.3084 0.0167,0 -0.588,0.9099 -1.3436,2.0222 -0.7557,1.1122 -1.4211,2.1034 -1.4785,2.2026 -0.0575,0.0993 -0.4069,0.6235 -0.7766,1.1651 -0.3695,0.5416 -0.7189,1.0657 -0.7765,1.1645 -0.2071,0.3562 -1.8298,2.7295 -2.0741,3.0334 -0.2359,0.2938 -1.1699,1.7794 -1.4608,2.3237 -0.1111,0.2079 -0.108,0.3125 0.018,0.614 0.0834,0.1999 0.1915,0.4136 0.2402,0.4749 0.0486,0.0615 0.2879,0.4848 0.5318,0.9409 0.2439,0.4561 0.5822,1.0857 0.7516,1.3993 0.1696,0.3136 0.5419,1.0132 0.8273,1.5548 0.2854,0.5416 0.6006,1.1246 0.7004,1.2957 0.0998,0.171 0.3801,0.6827 0.6227,1.137 0.2427,0.4543 0.5214,0.9688 0.6194,1.1433 0.0981,0.1745 0.3755,0.689 0.6164,1.1434 0.5306,1.0003 0.685,1.1442 1.3234,1.2337 0.2728,0.0383 0.8459,0.1343 1.2735,0.2133 0.7371,0.1363 2.1181,0.3726 4.198,0.7185 0.5128,0.0854 1.4923,0.2512 2.1767,0.3686 0.6837,0.1174 1.6406,0.2795 2.1252,0.3603 1.2213,0.2037 3.3827,0.5766 3.9124,0.6749 l 0.4394,0.0819 3.0393,-3.0711 c 5.0068,-5.0596 5.7678,-5.8709 5.7708,-6.1514 0.002,-0.2172 -0.54,-1.8371 -2.1268,-6.352 -0.7385,-2.1006 -1.3181,-3.7854 -1.3915,-4.0425 -0.0484,-0.171 -0.3104,-0.952 -0.5821,-1.7354 -0.2725,-0.7836 -0.4676,-1.4515 -0.4345,-1.4844 0.0322,-0.0329 0.3555,0.0581 0.7175,0.2023 1.2552,0.4999 1.8034,0.5937 3.5074,0.5992 2.025,0.0067 5.099,-0.3994 6.738,-0.8897 0.257,-0.0767 0.77,-0.2226 1.14,-0.324 0.371,-0.1014 0.884,-0.266 1.14,-0.3658 3.061,-1.1895 4.122,-1.7446 5.805,-3.038 0.995,-0.764 1.552,-1.4037 2.628,-3.0185 0.94,-1.4097 1.318,-1.8894 2.203,-2.7907 0.578,-0.5902 1.549,-1.4141 2.113,-1.793 1.094,-0.7361 3.182,-1.6785 4.509,-2.0364 0.343,-0.0919 0.903,-0.2443 1.244,-0.3378 0.466,-0.1282 1.238,-0.183 3.075,-0.2177 2.187,-0.0419 2.58,-0.0234 3.628,0.1725 2.319,0.4346 5.037,1.5366 6.995,2.837 2.99,1.9856 5.857,4.6272 8.795,8.1021 0.285,0.3372 0.904,1.0549 1.374,1.5951 0.804,0.9226 0.846,0.9933 0.687,1.1687 -0.212,0.2341 -1.526,0.8812 -3.926,1.9344 -1.027,0.4501 -2.106,0.9538 -2.399,1.1193 -1.435,0.8103 -1.803,1.0421 -2.499,1.5715 -0.919,0.6997 -2.097,1.9207 -2.724,2.8237 -0.862,1.2416 -1.21,2.0885 -2.435,5.9082 -0.465,1.4519 -0.576,1.7611 -1.365,3.7833 -1.248,3.2005 -3.335,7.5884 -5.45,11.4537 -0.384,0.7034 -2.87,4.9399 -3.313,5.649 -0.734,1.1722 -3.33,5.0475 -4.037,6.0255 -2.838,3.9269 -4.717,6.1361 -8.06,9.4741 -3.548,3.5433 -5.5,5.0642 -8.999,7.0129 -0.356,0.1984 -0.647,0.3176 -0.647,0.2648 0,-0.0527 0.105,-0.1449 0.233,-0.2049 0.414,-0.1936 2.269,-1.7972 3.743,-3.2373 1.426,-1.3921 2.664,-2.759 3.853,-4.2536 0.34,-0.4276 0.665,-0.834 0.722,-0.9034 0.231,-0.2804 0.341,-0.4243 0.894,-1.1697 1.009,-1.3624 2.164,-2.9979 2.164,-3.0658 0,-0.0361 0.131,-0.2357 0.291,-0.4434 0.16,-0.2078 0.656,-0.9608 1.103,-1.6734 0.447,-0.7126 0.969,-1.5398 1.16,-1.8382 0.191,-0.2985 0.348,-0.5747 0.348,-0.6138 0,-0.0392 0.063,-0.1448 0.142,-0.2348 0.077,-0.09 0.28,-0.4202 0.452,-0.7337 0.171,-0.3136 0.589,-1.0599 0.929,-1.6584 1.824,-3.2119 4.169,-7.9569 5.943,-12.0258 0.733,-1.6811 2.339,-5.6693 2.691,-6.6836 1.162,-3.3496 1.761,-5.3453 2.425,-8.0857 0.47,-1.9411 0.717,-2.6451 1.379,-3.9381 1.361,-2.6535 3.746,-4.8562 6.614,-6.1085 1.733,-0.7563 3.085,-1.1093 5.339,-1.393 1.013,-0.1275 1.399,-0.2144 1.399,-0.3151 0,-0.1288 -1.142,-1.0231 -1.326,-1.0387 -0.045,-0.0039 -0.209,-0.0931 -0.363,-0.1984 -0.154,-0.1054 -0.91,-0.6068 -1.68,-1.1143 -0.769,-0.5075 -2.168,-1.46 -3.109,-2.1168 -3.97,-2.7708 -5.079,-3.3368 -7.912,-4.0374 -0.842,-0.208 -1.123,-0.2233 -3.473,-0.191 -2.694,0.0371 -2.691,0.0371 -4.423,0.6344 -1.12,0.387 -2.241,0.953 -3.213,1.6213 -0.713,0.491 -2.221,2.0556 -2.788,2.892 -0.641,0.9468 -2.416,2.6564 -3.483,3.3549 -2.049,1.3416 -4.456,2.2804 -7.359,2.8713 -2.485,0.5058 -6.008,0.6667 -8.189,0.3742 -1.12,-0.1504 -1.4343,-0.0952 -1.135,0.1992 0.083,0.0818 0.85,0.5872 1.706,1.1231 2.271,1.4232 2.301,1.4452 4.089,2.9695 1.113,0.949 3.217,3.1098 4.095,4.2049 0.736,0.9178 1.861,2.493 2.513,3.5196 0.272,0.4281 1.767,3.3689 2.111,4.1507 0.169,0.3853 0.508,1.2956 0.482,1.2956 -0.013,0 -0.771,-0.2598 -1.683,-0.5772 -0.911,-0.3175 -2.264,-0.7824 -3.004,-1.0333 -0.741,-0.2508 -2.374,-0.8094 -3.628,-1.2412 -4.206,-1.4484 -4.992,-1.709 -5.154,-1.709 -0.133,0 -2.743,2.6121 -8.3057,8.3111 l -0.8134,0.8334 0.0726,0.9473 c 0.0395,0.521 0.1128,1.1672 0.162,1.4361 0.05,0.2687 0.1387,0.8985 0.1983,1.3993 0.0597,0.5007 0.1758,1.3769 0.2572,1.947 0.0822,0.5701 0.2249,1.6195 0.3176,2.3321 0.3628,2.7778 0.8659,6.281 0.9392,6.5411 0.0532,0.187 1.1771,0.8204 4.8114,2.7111 1.6968,0.8832 2.7188,1.4215 4.0188,2.1169 1.272,0.6808 1.164,0.6965 2.85,-0.4129 0.64,-0.4214 1.794,-1.1772 2.564,-1.6796 0.769,-0.5024 2.891,-1.902 4.716,-3.11 3.985,-2.6392 3.782,-2.5228 3.782,-2.1827 0,1.2811 -0.882,5.349 -1.61,7.418 -0.709,2.0191 -2.149,4.8986 -3.394,6.7892 -1.527,2.3198 -1.959,2.8389 -4.635,5.5735 -0.997,1.0195 -1.814,1.9318 -1.814,2.0272 0,0.111 -0.202,0.2607 -0.564,0.4166 -0.311,0.1337 -0.728,0.354 -0.928,0.4896 -0.199,0.1355 -0.374,0.2335 -0.391,0.2179 -0.015,-0.0157 0.038,-0.9823 0.119,-2.1481 0.081,-1.1658 0.174,-2.7493 0.208,-3.5189 0.034,-0.7696 0.133,-2.5421 0.22,-3.9388 0.086,-1.3967 0.143,-2.975 0.125,-3.5073 l -0.033,-0.9678 -0.739,-0.3971 c -0.406,-0.2183 -1.432,-0.7574 -2.28,-1.1978 -0.848,-0.4405 -1.798,-0.9412 -2.1116,-1.1127 -0.3136,-0.1715 -0.9667,-0.5199 -1.4512,-0.7743 -2.5137,-1.3196 -3.0748,-1.6203 -3.2618,-1.7493 -0.4515,-0.3106 -0.9166,-0.1776 -3.0885,0.8831 -1.1537,0.563 -2.6572,1.2923 -3.3409,1.6206 -0.6844,0.3283 -1.909,0.9171 -2.7208,1.3084 -0.8127,0.3913 -2.1421,1.0307 -2.9547,1.4209 -0.8119,0.3901 -1.5318,0.7754 -1.5987,0.8562 -0.0669,0.0808 -0.1967,0.6595 -0.2886,1.2859 -0.0911,0.6266 -0.1884,1.2111 -0.215,1.299 -0.0266,0.0879 -0.0914,0.4843 -0.1438,0.8811 -0.0901,0.681 -0.2422,1.6495 -0.5769,3.6753 -0.0801,0.4846 -0.2261,1.3852 -0.3245,2.0014 l -0.1787,1.1204 0.3028,0.2954 c 0.1665,0.1624 1.4513,1.1509 2.8557,2.1965 4.5033,3.3532 7.9917,5.94156 8.1078,6.01565 0.2032,0.12964 0.0073,0.19373 -1.5245,0.49855 -1.223,0.24331 -1.9824,0.32151 -3.9769,0.40898 -2.8773,0.12617 -3.2756,0.1223 -5.0038,-0.04902 z"
                     stroke="#ffffff"
                     stroke-width="0.0806189"
                     fill="#6a9a1f"
                     transform="matrix(1.00839,0,0,1,437.264,270.039)"
                     id="path42" />
                  <path
                     d="m 54.0425,-49.2476 c -1.6606,-0.7422 -2.6002,-1.3316 -3.635,-2.2798 -2.9534,-2.7066 -3.439,-6.157 -1.4903,-10.5893 0.1965,-0.4469 0.3572,-0.8809 0.3572,-0.9647 0,-0.0837 -0.1515,-0.2682 -0.3369,-0.4098 -0.5073,-0.3877 -2.0724,-2.0142 -2.6369,-2.7405 -0.7481,-0.9624 -1.108,-1.5789 -1.5119,-2.5899 -0.5113,-1.2802 -0.5807,-1.5175 -0.752,-2.5734 -0.3664,-2.258 -0.0651,-4.9375 0.7917,-7.0399 0.1646,-0.4038 0.2994,-0.8694 0.2996,-1.0348 2e-4,-0.1793 -0.1982,-0.6181 -0.4921,-1.0883 -1.9718,-3.1551 -2.6912,-6.9691 -2.0997,-11.1331 0.1118,-0.7868 0.2478,-1.6035 0.3023,-1.8139 0.5214,-2.0171 0.7683,-2.8056 1.3203,-4.218 0.6657,-1.7035 2.124,-4.455 3.1311,-5.908 0.5929,-0.855 2.2889,-2.938 2.5307,-3.108 0.3489,-0.244 0.7587,-0.192 1.1336,0.142 l 0.3355,0.3 0.0146,3.147 c 0.0141,2.999 0.0269,3.1931 0.2736,4.1315 1.0184,3.8737 3.1902,6.4406 7.215,8.5278 2.1187,1.0989 4.4557,1.8849 8.1025,2.7257 5.1017,1.1763 6.5017,1.6463 9.6397,3.2369 1.584,0.803 2.312,1.2649 3.7717,2.3944 2.4582,1.9002 4.3406,4.0503 5.7853,6.6068 1.5318,2.7102 2.2944,5.0121 2.7765,8.3816 0.3765,2.6324 0.2096,5.8713 -0.4289,8.3238 -0.2459,0.944 -0.3531,0.9491 -0.4506,0.0211 -0.0879,-0.8402 -0.3435,-2.2824 -0.6337,-3.5769 -0.8941,-3.9853 -2.6056,-7.7383 -4.7436,-10.4006 -1.876,-2.3353 -4.024,-4.1351 -6.4553,-5.4082 -1.6376,-0.8574 -4.63,-2.012 -5.8924,-2.2735 -0.228,-0.0472 -0.6944,-0.1557 -1.0365,-0.2407 -0.3421,-0.0855 -1.0184,-0.2354 -1.503,-0.333 -5.4736,-1.1061 -7.3477,-1.6712 -10.2715,-3.0982 -3.3192,-1.6196 -5.8683,-3.7584 -7.6745,-6.439 -0.665,-0.9876 -1.748,-3.1538 -1.748,-3.4964 0,-0.0565 -0.1194,-0.4934 -0.2654,-0.9723 -0.2075,-0.6796 -0.3071,-0.8699 -0.4563,-0.8699 -0.1462,0 -0.2395,0.1645 -0.3979,0.6998 -1.0507,3.5529 -1.2944,5.0185 -1.3059,7.8515 -0.0061,1.5043 0.036,2.1904 0.178,2.9023 0.3967,1.9904 1.2186,4.0563 2.1805,5.4816 0.265,0.3923 0.4816,0.733 0.4816,0.757 0,0.0823 1.1807,1.5354 1.651,2.0319 0.4776,0.5043 0.7299,0.8569 0.5625,0.7861 -0.5974,-0.2525 -2.156,-1.1781 -2.7918,-1.6579 -0.4439,-0.3351 -0.864,-0.6093 -0.9334,-0.6093 -0.2489,0 -0.6035,0.7464 -1.1576,2.4359 -0.2573,0.7845 -0.2721,0.9439 -0.2743,2.9541 -0.0021,1.9456 0.0183,2.1905 0.2416,2.9023 0.355,1.1312 0.9501,2.3696 1.58,3.2878 0.644,0.9388 2.7639,3.1632 3.6615,3.842 0.8566,0.6478 0.864,0.6562 0.5144,0.5863 -0.3735,-0.0747 -0.5529,0.1356 -1.1631,1.3632 -0.852,1.7142 -1.0626,2.4908 -1.06,3.91 0.0035,1.9771 0.6836,3.3837 2.4829,5.1352 0.5632,0.5482 2.5461,1.9841 2.7401,1.9841 0.0312,0 0.2095,0.0932 0.3961,0.2069 0.5506,0.3358 0.0964,0.2349 -0.8526,-0.1893 z"
                     stroke="#ffffff"
                     stroke-width="0.0806189"
                     fill="#6a9a1f"
                     transform="matrix(1.00839,0,0,1,437.264,270.039)"
                     id="path44" />
                </g>
              </g>
            </g>
            <text
               fill="#6a9a1f"
               font-family="'Yu Gothic UI Light', 'Yu Gothic UI Light_MSFontService', sans-serif"
               font-weight="300"
               font-size="24px"
               id="text60"
               x="593.03888"
               y="225.01988"
               style="letter-spacing:-1px"><tspan
                 sodipodi:role="line"
                 x="593.03888"
                 y="225.01988"
                 style="font-style:normal;font-variant:normal;font-weight:normal;font-stretch:normal;font-size:21.3333px;font-family:'Yu Gothic UI';-inkscape-font-specification:'Yu Gothic UI Bold';letter-spacing:1px;word-spacing:0px"
                 id="tspan391858">障がい児サッカースクール</tspan><tspan
                 sodipodi:role="line"
                 id="tspan253757"
                 x="593.03888"
                 y="262.22592"
                 style="font-style:normal;font-variant:normal;font-weight:bold;font-stretch:normal;font-size:32px;font-family:'Yu Gothic UI';-inkscape-font-specification:'Yu Gothic UI Bold';letter-spacing:1px">NPO<tspan
   style="font-size:29.3333px"
   id="tspan68525">法人</tspan> ピジョン</tspan></text>
            <text
               xml:space="preserve"
               style="font-weight:bold;font-size:40px;line-height:1.25;font-family:'Malgun Gothic';-inkscape-font-specification:'Malgun Gothic Bold';letter-spacing:0px"
               x="892.76312"
               y="256.70813"
               id="text340989"><tspan
                 sodipodi:role="line"
                 id="tspan340987"
                 x="892.76312"
                 y="256.70813" /></text>
          </g>
        </g>
      </g>
      <rect
         style="opacity:0;fill:#ffffff;stroke:#000000;stroke-width:1.10362;stroke-opacity:1"
         id="rect19314"
         width="386.93509"
         height="26.494841"
         x="608.52429"
         y="233.76234" />
    </g>
  </g>
</svg>
